<svg xmlns="http://www.w3.org/2000/svg" width="512" height="512" viewBox="0 0 512 512">
<g>
<path d="M 204.00 234.00 L 204.00 268.00 L 189.11 268.00 C176.45,268.00 174.12,267.76 173.61,266.42 C173.27,265.55 173.00,257.90 173.00,249.42 L 173.00 234.00 Z" fill="rgb(48,60,78)"/>
<path d="M 487.43 486.76 C486.23,488.40 473.33,488.50 255.97,488.51 C37.20,488.51 25.71,488.42 24.54,486.75 C23.86,485.78 23.38,483.64 23.48,481.99 C23.57,480.35 23.73,448.85 23.83,412.00 L 24.00 345.00 L 488.00 345.00 L 488.17 412.00 C488.27,448.85 488.43,480.36 488.52,482.01 C488.62,483.67 488.13,485.81 487.43,486.76 ZM 66.24 192.25 L 65.99 267.00 L 57.21 267.00 C56.65,267.00 56.13,267.00 55.64,267.00 C51.61,267.02 49.73,267.02 48.81,266.08 C47.89,265.14 47.93,263.26 47.76,259.50 C47.16,246.68 48.17,99.27 48.87,98.18 C49.55,97.10 83.47,96.86 239.60,96.87 C344.05,96.88 438.16,96.91 448.75,96.94 L 468.00 97.00 L 468.00 179.43 C468.00,230.58 467.63,262.84 467.02,264.43 C466.07,266.94 465.83,267.00 456.53,267.00 L 447.01 267.00 L 446.76 192.25 L 446.50 117.50 L 66.50 117.50 Z" fill="rgb(231,76,61)"/>
<path d="M 188.00 234.00 L 188.00 200.25 L 191.16 199.62 C193.00,199.25 195.93,197.29 198.16,194.95 L 202.00 190.92 L 202.00 149.00 L 212.68 149.00 L 225.00 170.54 L 237.32 192.09 L 235.02 196.29 C233.75,198.61 231.73,201.85 230.53,203.50 C229.33,205.15 224.84,212.69 220.56,220.25 L 212.77 234.00 L 188.00 234.00 ZM 345.80 266.80 C344.98,267.62 340.02,268.00 330.00,268.00 C319.98,268.00 315.02,267.62 314.20,266.80 C312.73,265.33 312.46,205.45 313.92,204.55 C314.43,204.24 315.34,205.49 315.94,207.33 C317.10,210.84 320.87,214.92 324.86,216.97 C329.16,219.19 335.37,217.44 339.52,212.85 C341.53,210.62 343.63,207.50 344.18,205.90 C344.74,204.31 345.60,203.00 346.10,203.00 C347.55,203.00 347.26,265.34 345.80,266.80 Z" fill="rgb(154,162,162)"/>
<path d="M 315.34 205.86 C314.83,204.88 314.27,204.33 313.92,204.55 C312.46,205.45 312.73,265.33 314.20,266.80 C314.38,266.98 314.77,267.14 315.36,267.28 C311.47,266.59 310.52,265.29 310.89,262.95 C311.10,261.60 311.32,236.10 311.39,206.29 C311.49,156.85 311.65,151.93 313.19,150.39 C314.64,148.94 316.89,148.73 329.13,148.92 C336.98,149.04 344.20,149.57 345.20,150.11 C346.57,150.84 346.98,152.20 346.90,155.79 C346.80,160.32 346.77,160.37 346.00,157.16 C345.57,155.32 344.79,153.39 344.28,152.88 C343.76,152.36 336.96,152.07 328.92,152.22 L 314.50 152.50 L 314.23 177.48 C314.02,197.21 314.20,202.49 315.34,205.86 ZM 236.94 191.42 L 212.68 149.00 L 202.00 149.00 L 202.00 147.00 L 207.43 147.00 C212.76,147.00 212.92,147.09 215.93,151.55 C217.62,154.05 219.00,156.64 219.01,157.30 C219.01,157.96 221.43,161.53 224.39,165.24 C227.74,169.44 230.04,173.40 230.47,175.74 C230.85,177.81 232.48,181.64 234.08,184.27 C235.69,186.89 237.00,189.90 237.00,190.96 C237.00,191.08 236.98,191.24 236.94,191.42 ZM 204.00 234.00 L 212.77 234.00 L 220.56 220.25 C224.84,212.69 229.33,205.15 230.53,203.50 C231.18,202.61 232.06,201.26 232.94,199.84 C231.10,203.09 229.30,206.97 228.79,208.78 C228.25,210.75 226.54,213.96 224.99,215.93 C223.44,217.89 220.73,222.20 218.98,225.50 C214.82,233.33 214.31,233.89 209.81,235.69 C207.71,236.53 205.93,237.28 205.85,237.36 C205.76,237.44 205.42,244.25 205.10,252.50 L 204.50 267.50 L 204.00 267.51 ZM 176.25 267.65 C174.25,267.46 173.28,267.14 172.78,266.64 C171.72,265.58 171.32,261.67 171.15,250.93 C171.02,242.41 170.49,236.09 169.84,235.31 C169.22,234.56 169.83,234.21 173.00,234.08 L 173.00 249.42 C173.00,257.90 173.27,265.55 173.61,266.42 C173.84,267.03 174.45,267.41 176.25,267.65 ZM 199.25 191.85 L 202.00 189.02 L 202.00 190.92 L 198.16 194.95 C195.93,197.29 193.00,199.25 191.16,199.62 L 188.00 200.25 L 188.00 217.00 C188.00,200.67 187.92,200.00 186.00,200.00 C183.86,200.00 176.00,193.47 176.00,191.69 C176.00,191.09 177.46,192.00 179.25,193.70 C183.49,197.74 189.89,198.94 193.78,196.44 C195.28,195.47 197.74,193.41 199.25,191.85 ZM 142.47 187.05 C141.10,189.22 139.50,191.00 138.92,191.00 C137.64,191.00 138.61,187.32 140.64,184.50 C141.43,183.40 143.90,179.69 146.15,176.25 C148.39,172.81 150.60,170.00 151.07,170.00 C151.94,170.00 146.82,180.15 142.47,187.05 ZM 158.50 159.00 C156.77,162.35 155.00,162.95 155.00,160.20 C155.00,158.08 156.85,156.00 158.73,156.00 C159.78,156.00 159.73,156.62 158.50,159.00 ZM 332.28 217.45 C329.66,218.20 327.02,218.09 324.86,216.97 C324.63,216.85 324.39,216.72 324.15,216.59 C326.73,217.84 329.54,218.15 332.28,217.45 ZM 317.92 210.99 C317.09,209.86 316.44,208.70 316.03,207.59 C316.59,208.83 317.23,209.96 317.92,210.99 Z" fill="rgb(175,66,58)"/>
<path d="M 199.25 191.85 C197.74,193.41 195.28,195.47 193.78,196.44 C189.89,198.94 183.49,197.74 179.25,193.70 C177.46,192.00 176.00,191.09 176.00,191.69 C176.00,192.18 176.61,193.05 177.53,194.04 L 175.50 192.14 L 175.32 174.82 C175.23,165.29 175.11,155.57 175.07,153.20 L 175.00 148.90 L 169.25 149.20 L 163.50 149.50 L 160.50 155.15 C160.10,155.90 159.67,156.67 159.24,157.42 C159.67,156.33 159.49,156.00 158.73,156.00 C156.85,156.00 155.00,158.08 155.00,160.20 C155.00,162.01 155.76,162.37 156.78,161.45 C156.43,161.97 156.12,162.39 155.90,162.65 C155.02,163.67 152.55,168.10 150.41,172.50 C150.24,172.85 150.07,173.20 149.89,173.56 C150.88,171.42 151.40,170.00 151.07,170.00 C150.60,170.00 148.39,172.81 146.15,176.25 C143.90,179.69 141.43,183.40 140.64,184.50 C138.61,187.32 137.64,191.00 138.92,191.00 C139.45,191.00 140.85,189.49 142.14,187.56 C140.89,189.70 140.00,191.55 140.00,192.03 C140.00,192.65 141.52,195.49 143.37,198.33 C145.23,201.17 147.37,204.71 148.12,206.19 C148.88,207.67 151.19,211.85 153.25,215.47 C155.31,219.10 157.00,222.62 157.00,223.30 C157.00,224.69 161.62,231.97 163.47,233.50 C163.98,233.92 166.89,234.18 170.99,234.23 C169.59,234.43 169.38,234.76 169.84,235.31 C170.49,236.09 171.02,242.41 171.15,250.93 C171.32,261.67 171.72,265.58 172.78,266.64 C173.06,266.91 173.47,267.14 174.12,267.31 C173.20,267.20 172.55,267.09 172.23,266.96 C170.26,266.17 169.97,265.36 170.04,260.77 C170.17,251.76 168.85,240.00 167.70,240.00 C166.21,240.00 156.12,228.96 155.38,226.50 C155.04,225.40 153.87,223.51 152.76,222.30 C151.46,220.88 150.92,219.22 151.22,217.62 C151.59,215.69 151.21,215.02 149.49,214.59 C147.97,214.21 146.42,212.09 144.48,207.77 C142.94,204.32 140.84,200.37 139.83,198.99 C136.76,194.82 137.18,188.53 141.08,180.26 C143.42,175.30 145.06,173.02 146.27,173.01 C147.25,173.00 148.58,171.83 149.23,170.39 C150.23,168.19 150.15,167.58 148.71,166.53 C146.90,165.21 146.39,163.00 147.89,163.00 C148.38,163.00 149.07,163.74 149.41,164.64 C149.99,166.13 150.22,166.11 152.02,164.48 C153.11,163.50 154.00,161.89 154.00,160.92 C154.00,159.95 155.12,157.82 156.50,156.18 C157.88,154.55 159.00,152.73 159.00,152.14 C159.00,150.81 155.49,148.84 154.63,149.70 C154.28,150.05 154.00,149.83 154.00,149.23 C154.00,147.25 156.08,146.76 157.81,148.33 C160.18,150.47 163.17,148.72 162.59,145.52 C161.94,141.93 165.00,141.27 167.54,144.45 C169.25,146.59 170.14,146.92 172.78,146.39 C175.58,145.83 176.08,146.08 176.98,148.44 C177.54,149.92 178.00,159.53 178.00,169.83 C178.00,186.27 178.23,188.95 179.89,192.02 C181.35,194.70 182.32,195.43 184.14,195.19 C185.44,195.02 187.94,194.91 189.70,194.94 C191.46,194.97 194.06,194.55 195.49,194.00 C197.68,193.17 197.92,192.71 197.03,191.05 C196.18,189.46 196.36,188.88 197.99,188.01 C199.09,187.41 200.00,186.05 200.00,184.96 C200.00,183.88 200.45,183.00 201.00,183.00 C201.62,183.00 202.00,177.67 202.00,169.00 C202.00,160.33 201.62,155.00 201.00,155.00 C200.45,155.00 200.00,154.51 200.00,153.90 C200.00,153.30 199.27,151.26 198.37,149.37 C196.56,145.56 196.97,144.32 199.56,145.77 C200.54,146.32 202.77,146.39 204.82,145.93 C206.83,145.47 209.13,145.53 210.12,146.06 C211.08,146.58 212.80,147.00 213.93,147.00 C215.07,147.00 216.00,147.61 216.00,148.35 C216.00,149.10 217.35,151.12 219.00,152.84 C220.72,154.65 222.00,157.06 222.00,158.53 C222.00,161.13 223.94,164.87 227.20,168.58 C228.14,169.65 229.42,172.28 230.16,174.60 C229.34,172.22 227.25,168.82 224.39,165.24 C221.43,161.53 219.01,157.96 219.01,157.30 C219.00,156.64 217.62,154.05 215.93,151.55 C212.92,147.09 212.76,147.00 207.43,147.00 L 202.00 147.00 L 202.00 189.02 ZM 317.51 267.61 C315.19,267.52 313.31,267.41 312.19,267.27 C308.32,266.80 307.23,264.81 309.00,261.50 C310.50,258.70 309.72,256.00 307.42,256.00 C306.34,256.00 305.99,255.46 306.39,254.42 C306.73,253.55 307.03,246.24 307.07,238.17 C307.11,230.10 307.48,224.36 307.89,225.40 C308.55,227.09 308.77,226.96 309.87,224.32 C310.77,222.15 310.94,217.23 310.49,206.41 C310.15,198.21 309.78,182.63 309.68,171.79 C309.51,153.66 309.35,151.98 307.59,150.69 C306.26,149.72 305.90,148.71 306.41,147.39 C307.09,145.67 307.29,145.75 308.61,148.25 C310.34,151.52 310.42,151.54 312.71,149.10 C314.38,147.32 315.35,147.25 327.44,148.10 C334.56,148.60 341.09,148.79 341.94,148.53 C343.88,147.93 351.31,150.42 351.78,151.83 C352.18,153.05 348.55,155.22 347.63,154.30 C347.28,153.95 346.95,155.20 346.90,157.08 L 346.80 160.50 L 346.00 157.16 C346.77,160.37 346.80,160.32 346.90,155.79 C346.98,152.20 346.57,150.84 345.20,150.11 C344.20,149.57 336.98,149.04 329.13,148.92 C316.89,148.73 314.64,148.94 313.19,150.39 C311.65,151.93 311.49,156.85 311.39,206.29 C311.32,236.10 311.10,261.60 310.89,262.95 C310.52,265.29 311.47,266.59 315.36,267.28 C315.90,267.41 316.61,267.52 317.51,267.61 ZM 236.94 191.42 C236.98,191.24 237.00,191.08 237.00,190.96 C237.00,189.90 235.69,186.89 234.08,184.27 C232.48,181.64 230.85,177.81 230.47,175.74 C230.45,175.63 230.42,175.52 230.40,175.40 C231.44,178.95 232.05,179.55 234.58,179.80 C237.33,180.07 237.56,180.37 237.21,183.32 C236.94,185.64 237.42,187.07 238.92,188.43 C241.62,190.87 241.54,192.20 238.48,195.84 C236.28,198.45 236.11,199.16 237.15,201.42 C238.56,204.52 237.86,205.53 235.28,204.15 C232.82,202.83 231.47,203.80 230.60,207.50 C230.20,209.15 227.43,214.38 224.44,219.13 C221.45,223.88 219.00,228.31 219.00,228.99 C219.00,230.67 214.27,234.25 210.20,235.66 C208.36,236.29 206.55,237.12 206.18,237.49 C206.01,237.66 205.86,238.11 205.73,238.77 C205.78,237.88 205.82,237.38 205.85,237.36 C205.93,237.28 207.71,236.53 209.81,235.69 C214.31,233.89 214.82,233.33 218.98,225.50 C220.73,222.20 223.44,217.89 224.99,215.93 C226.54,213.96 228.25,210.75 228.79,208.78 C229.30,206.97 231.10,203.09 232.94,199.84 C233.69,198.62 234.43,197.36 235.02,196.29 L 237.32 192.09 ZM 121.00 258.32 C121.00,261.43 120.39,264.42 119.53,265.56 C118.20,267.32 118.06,266.84 118.03,260.25 L 118.00 253.00 L 84.00 253.00 L 83.86 258.75 C83.79,261.91 83.55,263.38 83.32,262.00 C83.10,260.62 82.38,258.44 81.73,257.14 C80.69,255.07 80.87,254.51 83.26,252.46 C85.17,250.81 87.16,250.14 90.03,250.18 C92.27,250.21 94.34,249.99 94.64,249.70 C94.93,249.40 97.48,249.85 100.31,250.68 C104.15,251.83 105.88,251.93 107.21,251.10 C109.64,249.58 113.09,249.72 117.38,251.51 C120.89,252.98 121.00,253.18 121.00,258.32 ZM 395.00 260.00 C395.00,266.41 394.09,268.58 392.49,265.99 C392.15,265.43 391.68,262.53 391.45,259.54 C391.09,254.73 391.31,253.90 393.47,252.21 C396.95,249.46 409.40,248.38 412.69,250.53 C414.40,251.65 416.17,251.91 418.80,251.42 C424.73,250.32 427.27,250.41 427.74,251.75 C428.07,252.72 424.41,253.00 411.58,253.00 L 395.00 253.00 ZM 152.32 232.75 C152.69,234.46 152.36,235.00 150.94,235.00 C148.74,235.00 147.00,232.17 147.00,228.57 C147.00,223.37 150.96,226.49 152.32,232.75 ZM 345.80 266.80 C346.50,266.10 346.93,251.57 347.03,236.55 C347.12,248.46 347.46,255.00 348.00,255.00 C348.55,255.00 349.00,255.68 349.00,256.50 C349.00,257.33 348.55,258.00 348.00,258.00 C346.46,258.00 346.82,261.60 348.50,263.00 C351.02,265.09 350.19,266.71 346.25,267.36 C345.48,267.48 343.96,267.58 341.96,267.66 C344.17,267.46 345.42,267.18 345.80,266.80 ZM 231.27 221.00 C229.50,223.07 227.00,223.70 227.00,222.07 C227.00,219.01 235.97,215.53 237.50,218.00 C237.85,218.57 237.01,219.00 235.55,219.00 C234.14,219.00 232.21,219.90 231.27,221.00 ZM 204.88 267.38 C204.76,267.40 204.64,267.42 204.50,267.44 L 205.10 252.50 C205.12,251.91 205.14,251.34 205.16,250.77 C205.26,253.21 205.50,255.00 205.90,255.00 C206.50,255.00 207.00,255.68 207.00,256.50 C207.00,257.33 206.55,258.00 206.00,258.00 C204.40,258.00 204.84,262.73 206.50,263.36 C209.09,264.36 208.13,266.72 204.88,267.38 ZM 306.98 215.75 C306.99,219.74 306.82,223.00 306.61,223.00 C304.92,223.00 304.42,212.44 306.00,210.00 C306.68,208.96 306.97,210.70 306.98,215.75 ZM 431.25 257.40 C430.88,258.00 430.27,260.30 429.91,262.50 C429.36,265.83 429.23,265.33 429.16,259.50 C429.07,253.21 429.21,252.69 430.50,254.40 C431.29,255.44 431.63,256.79 431.25,257.40 ZM 135.00 201.12 C135.00,203.01 133.91,203.58 132.67,202.33 C132.30,201.97 132.00,200.56 132.00,199.21 C132.00,197.14 132.24,196.95 133.50,198.00 C134.32,198.68 135.00,200.09 135.00,201.12 ZM 150.00 155.29 C150.00,158.05 148.67,158.89 147.44,156.90 C147.07,156.30 147.49,155.08 148.38,154.19 C149.87,152.70 150.00,152.78 150.00,155.29 ZM 418.78 243.15 C418.54,243.89 417.53,244.66 416.55,244.85 C415.41,245.07 414.93,244.71 415.22,243.85 C415.46,243.11 416.47,242.34 417.45,242.15 C418.59,241.93 419.07,242.29 418.78,243.15 ZM 81.77 246.19 C81.15,248.04 79.00,248.35 79.00,246.58 C79.00,245.71 79.71,245.00 80.58,245.00 C81.45,245.00 81.99,245.53 81.77,246.19 ZM 183.46 234.00 L 188.00 233.88 L 188.00 234.00 ZM 180.25 196.56 C182.47,198.39 184.94,200.00 186.00,200.00 C186.37,200.00 186.66,200.02 186.91,200.17 C186.65,200.02 186.34,200.00 185.96,200.00 C184.93,200.00 182.45,198.49 180.25,196.56 Z" fill="rgb(187,60,42)"/>
<path d="M 183.46 234.00 L 173.00 234.00 L 173.00 234.08 C172.16,234.11 171.50,234.17 170.99,234.23 C170.02,234.22 169.12,234.20 168.30,234.16 C169.77,234.00 171.00,233.59 171.00,233.01 C171.00,232.59 169.64,231.98 167.98,231.65 C166.04,231.26 164.64,230.19 164.05,228.63 C163.21,226.43 158.52,221.00 157.45,221.00 C156.13,221.00 157.42,224.69 159.44,228.19 C158.10,226.06 157.00,223.98 157.00,223.30 C157.00,222.62 155.31,219.10 153.25,215.47 C151.19,211.85 148.88,207.67 148.12,206.19 C147.37,204.71 145.23,201.17 143.37,198.33 C142.34,196.75 141.41,195.16 140.79,193.97 C140.86,193.99 140.93,194.00 141.00,194.00 C141.55,194.00 142.00,193.29 142.00,192.42 C142.00,191.55 143.57,188.47 145.50,185.57 C147.43,182.67 149.00,179.76 149.00,179.11 C149.00,178.45 149.85,176.70 150.89,175.21 C155.25,168.96 159.97,161.20 162.07,156.82 C164.19,152.43 166.09,151.05 170.04,151.01 C171.36,151.00 171.62,153.31 171.82,166.75 C172.05,183.03 172.64,189.00 174.02,189.00 C174.53,189.00 175.06,178.61 175.26,168.76 C175.28,170.74 175.30,172.78 175.32,174.82 L 175.48 190.17 C175.34,190.06 175.17,190.00 175.00,190.00 C173.03,190.00 174.05,193.60 176.75,196.16 C178.26,197.60 180.08,199.50 180.79,200.38 C181.97,201.86 186.28,202.44 187.61,201.62 C187.97,203.55 188.00,207.78 188.00,217.00 L 188.00 233.88 ZM 315.34 205.86 C314.20,202.49 314.02,197.21 314.23,177.48 L 314.50 152.50 L 328.92 152.22 C329.61,152.21 330.28,152.20 330.94,152.19 C330.39,152.20 329.81,152.21 329.20,152.22 L 314.50 152.50 L 314.23 177.75 C314.05,195.30 314.29,203.00 315.04,203.00 C315.79,203.00 316.06,195.60 315.93,178.97 C315.82,165.75 315.92,154.75 316.15,154.52 C316.37,154.29 322.04,154.00 328.74,153.87 C339.40,153.66 341.19,153.86 342.97,155.47 C344.66,157.00 345.72,157.13 345.74,156.16 C345.84,156.49 345.93,156.82 346.00,157.16 L 346.54 159.42 C346.12,163.32 346.21,184.05 346.52,205.21 C346.40,203.79 346.26,203.00 346.10,203.00 C345.60,203.00 344.74,204.31 344.18,205.90 C343.63,207.50 341.53,210.62 339.52,212.85 C337.45,215.14 334.88,216.72 332.28,217.45 C329.54,218.15 326.73,217.84 324.15,216.59 C321.77,215.21 319.52,213.15 317.92,210.99 C317.23,209.96 316.59,208.83 316.03,207.59 C316.00,207.50 315.97,207.41 315.94,207.33 C315.76,206.78 315.55,206.28 315.34,205.86 ZM 347.05 231.76 C347.39,245.15 347.79,255.00 348.15,255.00 C348.62,255.00 349.00,255.68 349.00,256.50 C349.00,255.68 348.55,255.00 348.00,255.00 C347.46,255.00 347.12,248.46 347.03,236.55 C347.04,234.95 347.05,233.35 347.05,231.76 ZM 347.63 154.30 C348.10,154.77 349.27,154.43 350.26,153.83 C349.30,154.46 348.18,154.85 347.76,154.43 C347.56,154.23 347.22,155.33 346.90,157.08 C346.95,155.20 347.28,153.95 347.63,154.30 ZM 175.06 152.13 L 174.79 148.91 L 175.00 148.90 ZM 140.03 192.21 C140.01,192.14 140.00,192.08 140.00,192.03 C140.00,191.55 140.89,189.70 142.14,187.56 C142.18,187.50 142.21,187.45 142.24,187.40 C141.07,189.46 140.19,191.36 140.03,192.21 ZM 343.68 152.67 C344.00,152.73 344.20,152.80 344.28,152.88 C344.41,153.01 344.56,153.23 344.71,153.51 C344.46,153.15 344.17,152.88 343.68,152.67 ZM 163.56 233.56 C163.53,233.54 163.50,233.52 163.47,233.50 C163.33,233.38 163.17,233.23 163.00,233.05 C163.19,233.24 163.38,233.41 163.56,233.56 ZM 186.47 200.03 C186.35,200.01 186.23,200.00 186.10,200.00 C186.23,200.00 186.36,200.01 186.47,200.03 Z" fill="rgb(189,194,198)"/>
<path d="M 66.24 192.25 L 66.50 117.50 L 446.50 117.50 L 446.76 192.25 L 447.01 267.00 L 429.00 267.00 L 429.00 253.00 L 412.00 253.00 C424.49,252.99 428.07,252.71 427.74,251.75 C427.27,250.41 424.73,250.32 418.80,251.42 C416.17,251.91 414.40,251.65 412.69,250.53 C409.40,248.38 396.95,249.46 393.47,252.21 C391.31,253.90 391.09,254.73 391.45,259.54 C391.68,262.53 392.15,265.43 392.49,265.99 C392.84,266.55 393.15,266.89 393.43,267.01 L 370.25 267.09 C362.79,267.11 355.09,267.14 347.23,267.16 C350.31,266.41 350.80,264.90 348.50,263.00 C346.82,261.60 346.46,258.00 348.00,258.00 C348.55,258.00 349.00,257.33 349.00,256.50 C349.00,255.68 348.62,255.00 348.15,255.00 C347.79,255.00 347.39,245.15 347.05,231.76 C347.07,220.47 346.91,209.70 346.52,205.21 C346.21,184.05 346.12,163.32 346.54,159.42 L 346.80 160.50 L 346.90 157.08 L 346.90 157.08 C347.22,155.33 347.56,154.23 347.76,154.43 C348.18,154.85 349.30,154.46 350.26,153.83 C351.21,153.25 351.98,152.43 351.78,151.83 C351.31,150.42 343.88,147.93 341.94,148.53 C341.09,148.79 334.56,148.60 327.44,148.10 C315.35,147.25 314.38,147.32 312.71,149.10 C310.42,151.54 310.34,151.52 308.61,148.25 C307.29,145.75 307.09,145.67 306.41,147.39 C305.90,148.71 306.26,149.72 307.59,150.69 C309.35,151.98 309.51,153.66 309.68,171.79 C309.78,182.63 310.15,198.21 310.49,206.41 C310.94,217.23 310.77,222.15 309.87,224.32 C308.77,226.96 308.55,227.09 307.89,225.40 C307.48,224.36 307.11,230.10 307.07,238.17 C307.03,246.24 306.73,253.55 306.39,254.42 C305.99,255.46 306.34,256.00 307.42,256.00 C309.72,256.00 310.50,258.70 309.00,261.50 C307.26,264.76 308.29,266.73 312.01,267.25 C274.21,267.33 235.72,267.37 204.92,267.37 C208.14,266.70 209.08,264.35 206.50,263.36 C204.84,262.73 204.40,258.00 206.00,258.00 C206.55,258.00 207.00,257.33 207.00,256.50 C207.00,255.68 206.50,255.00 205.90,255.00 C205.50,255.00 205.26,253.21 205.16,250.77 C205.38,245.46 205.59,240.95 205.73,238.77 C205.86,238.11 206.01,237.66 206.18,237.49 C206.55,237.12 208.36,236.29 210.20,235.66 C214.27,234.25 219.00,230.67 219.00,228.99 C219.00,228.31 221.45,223.88 224.44,219.13 C227.43,214.38 230.20,209.15 230.60,207.50 C231.47,203.80 232.82,202.83 235.28,204.15 C237.86,205.53 238.56,204.52 237.15,201.42 C236.11,199.16 236.28,198.45 238.48,195.84 C241.54,192.20 241.62,190.87 238.92,188.43 C237.42,187.07 236.94,185.64 237.21,183.32 C237.56,180.37 237.33,180.07 234.58,179.80 C232.05,179.55 231.44,178.95 230.40,175.40 C230.33,175.15 230.25,174.88 230.16,174.60 C229.42,172.28 228.14,169.65 227.20,168.58 C223.94,164.87 222.00,161.13 222.00,158.53 C222.00,157.06 220.72,154.65 219.00,152.84 C217.35,151.12 216.00,149.10 216.00,148.35 C216.00,147.61 215.07,147.00 213.93,147.00 C212.80,147.00 211.08,146.58 210.12,146.06 C209.13,145.53 206.83,145.47 204.82,145.93 C202.77,146.39 200.54,146.32 199.56,145.77 C196.97,144.32 196.56,145.56 198.37,149.37 C199.27,151.26 200.00,153.30 200.00,153.90 C200.00,154.51 200.45,155.00 201.00,155.00 C201.62,155.00 202.00,160.33 202.00,169.00 C202.00,177.67 201.62,183.00 201.00,183.00 C200.45,183.00 200.00,183.88 200.00,184.96 C200.00,186.05 199.09,187.41 197.99,188.01 C196.36,188.88 196.18,189.46 197.03,191.05 C197.92,192.71 197.68,193.17 195.49,194.00 C194.06,194.55 191.46,194.97 189.70,194.94 C187.94,194.91 185.44,195.02 184.14,195.19 C182.32,195.43 181.35,194.70 179.89,192.02 C178.23,188.95 178.00,186.27 178.00,169.83 C178.00,159.53 177.54,149.92 176.98,148.44 C176.08,146.08 175.58,145.83 172.78,146.39 C170.14,146.92 169.25,146.59 167.54,144.45 C165.00,141.27 161.94,141.93 162.59,145.52 C163.17,148.72 160.18,150.47 157.81,148.33 C156.08,146.76 154.00,147.25 154.00,149.23 C154.00,149.83 154.28,150.05 154.63,149.70 C155.49,148.84 159.00,150.81 159.00,152.14 C159.00,152.73 157.88,154.55 156.50,156.18 C155.12,157.82 154.00,159.95 154.00,160.92 C154.00,161.89 153.11,163.50 152.02,164.48 C150.22,166.11 149.99,166.13 149.41,164.64 C149.07,163.74 148.38,163.00 147.89,163.00 C146.39,163.00 146.90,165.21 148.71,166.53 C150.15,167.58 150.23,168.19 149.23,170.39 C148.58,171.83 147.25,173.00 146.27,173.01 C145.06,173.02 143.42,175.30 141.08,180.26 C137.18,188.53 136.76,194.82 139.83,198.99 C140.84,200.37 142.94,204.32 144.48,207.77 C146.42,212.09 147.97,214.21 149.49,214.59 C151.21,215.02 151.59,215.69 151.22,217.62 C150.92,219.22 151.46,220.88 152.76,222.30 C153.87,223.51 155.04,225.40 155.38,226.50 C156.12,228.96 166.21,240.00 167.70,240.00 C168.85,240.00 170.17,251.76 170.04,260.77 C169.97,265.36 170.26,266.17 172.23,266.96 C172.55,267.09 173.20,267.20 174.12,267.31 C174.16,267.32 174.20,267.33 174.24,267.34 C161.34,267.32 151.57,267.28 146.25,267.23 L 118.00 266.97 L 118.00 253.00 L 118.03 260.25 C118.06,266.84 118.20,267.32 119.53,265.56 C120.39,264.42 121.00,261.43 121.00,258.32 C121.00,253.18 120.89,252.98 117.38,251.51 C113.09,249.72 109.64,249.58 107.21,251.10 C105.88,251.93 104.15,251.83 100.31,250.68 C97.48,249.85 94.93,249.40 94.64,249.70 C94.34,249.99 92.27,250.21 90.03,250.18 C87.16,250.14 85.17,250.81 83.26,252.46 C80.87,254.51 80.69,255.07 81.73,257.14 C82.38,258.44 83.10,260.62 83.32,262.00 C83.55,263.38 83.79,261.91 83.86,258.75 L 84.00 253.00 L 84.00 267.00 L 65.99 267.00 C64.50,267.00 63.14,267.00 61.88,267.01 C59.62,267.02 57.73,267.02 56.15,267.00 C56.49,267.00 56.84,267.00 57.21,267.00 L 65.99 267.00 ZM 152.32 232.75 C150.96,226.49 147.00,223.37 147.00,228.57 C147.00,232.17 148.74,235.00 150.94,235.00 C152.36,235.00 152.69,234.46 152.32,232.75 ZM 231.27 221.00 C232.21,219.90 234.14,219.00 235.55,219.00 C237.01,219.00 237.85,218.57 237.50,218.00 C235.97,215.53 227.00,219.01 227.00,222.07 C227.00,223.70 229.50,223.07 231.27,221.00 ZM 306.98 215.75 C306.97,210.70 306.68,208.96 306.00,210.00 C304.42,212.44 304.92,223.00 306.61,223.00 C306.82,223.00 306.99,219.74 306.98,215.75 ZM 431.25 257.40 C431.63,256.79 431.29,255.44 430.50,254.40 C429.21,252.69 429.07,253.21 429.16,259.50 C429.23,265.33 429.36,265.83 429.91,262.50 C430.27,260.30 430.88,258.00 431.25,257.40 ZM 135.00 201.12 C135.00,200.09 134.32,198.68 133.50,198.00 C132.24,196.95 132.00,197.14 132.00,199.21 C132.00,200.56 132.30,201.97 132.67,202.33 C133.91,203.58 135.00,203.01 135.00,201.12 ZM 150.00 155.29 C150.00,152.78 149.87,152.70 148.38,154.19 C147.49,155.08 147.07,156.30 147.44,156.90 C148.67,158.89 150.00,158.05 150.00,155.29 ZM 418.78 243.15 C419.07,242.29 418.59,241.93 417.45,242.15 C416.47,242.34 415.46,243.11 415.22,243.85 C414.93,244.71 415.41,245.07 416.55,244.85 C417.53,244.66 418.54,243.89 418.78,243.15 ZM 81.77 246.19 C81.99,245.53 81.45,245.00 80.58,245.00 C79.71,245.00 79.00,245.71 79.00,246.58 C79.00,248.35 81.15,248.04 81.77,246.19 ZM 395.00 260.00 L 395.00 267.00 L 393.87 267.00 C394.60,266.63 395.00,264.25 395.00,260.00 ZM 456.53 267.00 C465.83,267.00 466.07,266.94 467.02,264.44 L 466.05 267.00 ZM 48.11 264.56 C47.80,263.45 47.86,261.84 47.76,259.50 C47.86,261.84 47.89,263.45 48.11,264.56 Z" fill="rgb(193,57,43)"/>
<path d="M 175.06 152.13 L 175.07 153.20 C175.11,155.06 175.18,161.47 175.26,168.76 C175.20,171.83 175.10,174.95 174.99,177.79 C175.00,177.04 175.00,176.28 175.00,175.50 C175.00,167.17 174.62,162.00 174.00,162.00 C173.45,162.00 172.99,159.64 172.98,156.75 C172.97,151.29 172.48,149.49 169.91,149.17 L 174.79 148.91 ZM 164.52 231.75 C166.20,233.05 168.08,233.85 169.39,233.98 C169.05,234.06 168.68,234.12 168.30,234.16 C165.81,234.06 164.09,233.85 163.56,233.56 C163.38,233.41 163.19,233.24 163.00,233.05 C162.03,232.03 160.64,230.09 159.44,228.19 C159.05,227.50 158.68,226.81 158.35,226.14 C159.53,227.64 161.53,229.45 164.52,231.75 ZM 165.70 149.39 C163.53,149.80 162.77,150.87 160.50,155.15 L 163.50 149.50 ZM 157.01 222.58 C156.81,221.61 156.92,221.00 157.45,221.00 C157.24,221.00 157.06,221.68 157.01,222.58 ZM 172.44 183.47 C172.79,187.29 173.30,188.90 174.04,189.00 C174.03,189.00 174.03,189.00 174.02,189.00 C173.30,189.00 172.79,187.36 172.44,183.47 ZM 171.00 233.07 C170.91,232.60 169.58,231.97 167.98,231.65 C169.64,231.98 171.00,232.59 171.00,233.01 C171.00,233.03 171.00,233.05 171.00,233.07 Z" fill="rgb(202,187,184)"/>
<path d="M 142.47 187.05 C145.19,182.73 148.22,177.14 149.89,173.56 C150.07,173.20 150.24,172.85 150.41,172.50 C152.55,168.10 155.02,163.67 155.90,162.65 C156.12,162.39 156.43,161.97 156.78,161.45 C157.31,160.97 157.91,160.15 158.50,159.00 C158.84,158.35 159.08,157.83 159.24,157.42 C159.67,156.67 160.10,155.90 160.50,155.15 L 160.50 155.15 L 160.52 155.11 C162.78,150.87 163.53,149.80 165.70,149.39 L 169.91 149.17 C172.48,149.49 172.97,151.29 172.98,156.75 C172.99,159.64 173.45,162.00 174.00,162.00 C174.62,162.00 175.00,167.17 175.00,175.50 C175.00,176.28 175.00,177.04 174.99,177.79 C174.74,183.96 174.38,188.83 174.04,189.00 C173.30,188.90 172.79,187.29 172.44,183.47 C172.12,179.92 171.93,174.51 171.82,166.75 C171.62,153.31 171.36,151.00 170.04,151.01 C166.09,151.05 164.19,152.43 162.07,156.82 C159.97,161.20 155.25,168.96 150.89,175.21 C149.85,176.70 149.00,178.45 149.00,179.11 C149.00,179.76 147.43,182.67 145.50,185.57 C143.57,188.47 142.00,191.55 142.00,192.42 C142.00,193.29 141.55,194.00 141.00,194.00 C140.93,194.00 140.86,193.99 140.79,193.97 C140.38,193.18 140.11,192.56 140.03,192.21 C140.19,191.36 141.07,189.46 142.24,187.40 C142.32,187.28 142.39,187.17 142.47,187.05 ZM 343.68 152.67 C344.17,152.88 344.46,153.15 344.71,153.51 C345.05,154.15 345.43,155.13 345.74,156.16 C345.72,157.13 344.66,157.00 342.97,155.47 C341.19,153.86 339.40,153.66 328.74,153.87 C322.04,154.00 316.37,154.29 316.15,154.52 C315.92,154.75 315.82,165.75 315.93,178.97 C316.06,195.60 315.79,203.00 315.04,203.00 C314.29,203.00 314.05,195.30 314.23,177.75 L 314.50 152.50 L 329.20 152.22 C329.81,152.21 330.39,152.20 330.94,152.19 C336.95,152.13 341.97,152.32 343.68,152.67 ZM 164.52 231.75 C161.53,229.45 159.53,227.64 158.35,226.14 C157.69,224.78 157.21,223.51 157.01,222.58 C157.06,221.68 157.24,221.00 157.45,221.00 C158.52,221.00 163.21,226.43 164.05,228.63 C164.64,230.19 166.04,231.26 167.98,231.65 C169.58,231.97 170.91,232.60 171.00,233.07 C170.93,233.47 170.28,233.78 169.39,233.98 C168.08,233.85 166.20,233.05 164.52,231.75 ZM 180.25 196.56 C182.45,198.49 184.93,200.00 185.96,200.00 C186.01,200.00 186.06,200.00 186.10,200.00 L 186.10 200.00 C186.23,200.00 186.35,200.01 186.47,200.03 C186.63,200.05 186.78,200.10 186.91,200.17 C187.22,200.37 187.45,200.78 187.61,201.62 C186.28,202.44 181.97,201.86 180.79,200.38 C180.08,199.50 178.26,197.60 176.75,196.16 C174.05,193.60 173.03,190.00 175.00,190.00 C175.17,190.00 175.34,190.06 175.48,190.17 L 175.50 192.14 L 177.53 194.04 C178.28,194.84 179.24,195.72 180.25,196.56 Z" fill="rgb(199,191,191)"/>
<path d="M 487.43 486.76 C488.13,485.81 488.62,483.67 488.52,482.01 C488.43,480.36 488.27,448.85 488.17,412.00 L 488.00 345.00 L 491.01 345.00 L 490.76 417.25 L 490.50 489.50 L 22.00 490.00 L 22.00 345.00 L 24.00 345.00 L 23.83 412.00 C23.73,448.85 23.57,480.35 23.48,481.99 C23.38,483.64 23.86,485.78 24.54,486.75 C25.71,488.42 37.20,488.51 255.97,488.51 C473.33,488.50 486.23,488.40 487.43,486.76 ZM 48.11 264.56 C48.25,265.24 48.46,265.73 48.81,266.08 C49.52,266.81 50.82,266.97 53.26,267.00 L 46.22 267.00 L 45.86 263.75 C45.66,261.96 45.72,223.60 46.00,178.51 L 46.50 96.52 L 238.50 96.74 C288.74,96.80 336.54,96.85 373.96,96.89 C336.80,96.88 289.38,96.87 239.60,96.87 C83.47,96.86 49.55,97.10 48.87,98.18 C48.17,99.27 47.16,246.68 47.76,259.50 C47.86,261.84 47.80,263.45 48.11,264.56 Z" fill="rgb(220,80,69)"/>
<path d="M 99.50 253.00 L 99.50 307.50 L 92.38 307.79 C85.68,308.06 85.22,307.94 84.64,305.79 C84.30,304.53 84.02,295.29 84.01,285.25 L 84.00 267.00 L 84.00 253.00 ZM 362.59 267.11 C365.17,267.10 367.72,267.10 370.25,267.09 L 393.43 267.01 C393.59,267.07 393.73,267.07 393.87,267.00 L 395.00 267.00 L 395.00 253.00 L 410.50 253.00 L 410.50 307.50 L 405.16 307.81 C401.54,308.01 399.04,307.60 397.41,306.53 C395.00,304.96 395.00,304.92 395.00,286.02 L 395.00 267.09 ZM 265.67 96.77 L 238.50 96.74 L 46.50 96.52 L 46.50 96.50 L 84.00 95.96 L 84.00 82.00 L 117.91 82.00 L 118.50 96.50 L 256.75 96.75 ZM 464.09 96.99 L 448.75 96.94 C444.22,96.93 424.39,96.91 395.00,96.90 L 395.00 82.00 L 428.91 82.00 L 429.21 89.25 L 429.50 96.50 L 448.75 96.77 ZM 118.00 267.00 L 118.00 266.97 L 123.78 267.02 Z" fill="rgb(240,193,22)"/>
<path d="M 176.25 267.65 C178.39,267.93 182.22,268.00 189.11,268.00 L 204.00 268.00 L 204.00 267.51 L 204.50 267.50 L 204.50 267.44 C204.64,267.42 204.76,267.40 204.88,267.38 C204.89,267.37 204.90,267.37 204.92,267.37 C235.72,267.37 274.21,267.33 312.01,267.25 C312.07,267.26 312.13,267.26 312.19,267.27 C313.31,267.41 315.19,267.52 317.51,267.61 C320.10,267.87 324.20,268.00 330.00,268.00 C335.42,268.00 339.35,267.89 341.96,267.66 C343.96,267.58 345.48,267.48 346.25,267.36 C346.60,267.30 346.93,267.23 347.23,267.16 C352.43,267.15 357.56,267.13 362.59,267.11 L 362.60 267.11 L 395.00 267.09 L 395.00 286.02 C395.00,304.92 395.00,304.96 397.41,306.53 C399.04,307.60 401.54,308.01 405.16,307.81 L 410.50 307.50 L 410.50 308.07 L 428.50 307.50 L 429.00 287.50 C429.18,280.32 429.28,272.60 429.29,267.00 L 466.05 267.00 L 467.02 264.44 L 467.02 264.43 C467.53,263.10 467.87,240.25 467.97,202.81 C467.99,253.44 468.28,266.56 469.21,267.15 C469.92,267.60 474.87,267.98 480.20,267.98 L 489.91 268.00 L 490.49 271.25 C490.74,272.65 490.87,303.40 490.85,345.00 L 22.00 345.00 L 22.00 268.00 L 32.88 268.00 C40.64,268.00 44.07,267.62 44.85,266.69 C45.27,266.17 45.57,258.13 45.75,240.96 C45.73,254.36 45.77,262.93 45.86,263.75 L 46.22 267.00 L 53.26 267.00 C53.95,267.01 54.74,267.01 55.64,267.00 C55.80,267.00 55.97,267.00 56.15,267.00 C57.73,267.02 59.62,267.02 61.87,267.01 L 61.88 267.01 C63.14,267.00 64.50,267.00 65.99,267.00 L 84.00 267.00 L 84.01 285.25 C84.02,295.29 84.30,304.53 84.64,305.79 C85.22,307.94 85.68,308.06 92.38,307.79 L 99.50 307.50 L 99.50 308.00 L 107.63 308.00 C113.09,308.00 116.11,307.57 116.84,306.70 C117.73,305.62 118.14,292.42 118.07,267.00 L 123.77 267.02 L 123.78 267.02 L 146.25 267.23 C151.57,267.28 161.34,267.32 174.24,267.34 C174.76,267.47 175.41,267.57 176.25,267.65 ZM 45.98 181.34 C46.01,139.68 46.23,104.60 46.49,97.99 L 46.00 178.51 C45.99,179.45 45.99,180.40 45.98,181.34 ZM 395.00 306.38 C395.00,307.37 395.83,308.00 397.17,308.00 C398.36,308.00 399.15,307.87 398.92,307.72 C398.69,307.56 397.71,306.83 396.75,306.09 C395.25,304.95 395.00,304.99 395.00,306.38 ZM 49.05 96.46 C52.34,96.19 58.57,96.00 65.56,96.00 L 80.96 96.00 ZM 468.00 152.49 L 468.00 97.04 L 468.04 97.04 ZM 429.00 255.16 L 428.91 253.00 L 429.00 253.00 Z" fill="rgb(245,96,80)"/>
<path d="M 429.00 255.16 L 429.00 267.00 L 429.29 267.00 C429.28,272.60 429.18,280.32 429.00,287.50 L 428.50 307.50 L 410.50 308.07 L 410.50 253.00 L 411.58 253.00 L 411.72 253.00 L 412.00 253.00 L 428.91 253.00 ZM 99.50 253.00 L 118.00 253.00 L 118.00 267.00 L 118.07 267.00 C118.14,292.42 117.73,305.62 116.84,306.70 C116.11,307.57 113.09,308.00 107.63,308.00 L 99.50 308.00 ZM 395.00 306.38 C395.00,304.99 395.25,304.95 396.75,306.09 C397.71,306.83 398.69,307.56 398.92,307.72 C399.15,307.87 398.36,308.00 397.17,308.00 C395.83,308.00 395.00,307.37 395.00,306.38 Z" fill="rgb(244,155,22)"/>
<path d="M 0.00 256.00 L 0.00 0.00 L 256.00 0.00 L 512.00 0.00 L 512.00 256.00 L 512.00 512.00 L 256.00 512.00 L 0.00 512.00 L 0.00 256.00 ZM 490.78 382.00 C490.94,322.88 490.81,273.04 490.49,271.25 L 489.91 268.00 L 480.20 267.98 C474.87,267.98 469.92,267.60 469.21,267.15 C468.16,266.49 467.92,249.91 467.98,181.69 L 468.04 97.04 L 448.77 96.77 L 429.50 96.50 L 429.21 89.25 L 428.91 82.00 L 411.96 82.00 L 395.00 82.00 L 395.00 89.50 L 395.00 97.01 L 256.75 96.75 L 118.50 96.50 L 118.21 89.25 L 117.91 82.00 L 100.96 82.00 L 84.00 82.00 L 84.00 89.00 L 84.00 96.00 L 65.56 96.00 C55.42,96.00 46.87,96.40 46.57,96.88 C46.28,97.36 46.01,135.47 45.98,181.57 C45.95,240.51 45.61,265.76 44.85,266.69 C44.07,267.62 40.64,268.00 32.88,268.00 L 22.00 268.00 L 22.00 379.00 L 22.00 490.00 L 256.25 489.75 L 490.50 489.50 L 490.78 382.00 Z" fill="none"/>
</g>
</svg>